<svg width="60" height="58" viewBox="0 0 60 58" fill="none" xmlns="http://www.w3.org/2000/svg">
<path d="M6.39154 5.87988L1.89862 9.33597C1.52953 9.61989 1.44454 10.1417 1.70446 10.5281L31.2239 54.4084C31.5339 54.8692 32.1875 54.9325 32.5802 54.5398L38.1757 48.9443C38.3412 48.7788 38.4341 48.5544 38.4341 48.3203V9.05662C38.4341 6.55223 36.3522 4.54986 33.8497 4.64736L6.89526 5.69754C6.71252 5.70466 6.5365 5.76838 6.39154 5.87988Z" fill="white" stroke="black" stroke-width="2.64756"/>
<rect x="1.32378" y="9.09722" width="32.8914" height="46.9417" rx="3.08882" fill="white" stroke="black" stroke-width="2.64756"/>
<path d="M38.7455 27.1052L32.4241 30.5032C31.9416 30.7626 31.8095 31.3944 32.1477 31.8254L50.6183 55.3636C50.9008 55.7237 51.4118 55.808 51.795 55.5578L57.5999 51.768C57.8495 51.6051 58 51.3271 58 51.0291V31.4126C58 28.9756 56.0244 27 53.5874 27H39.1633C39.0175 27 38.8739 27.0361 38.7455 27.1052Z" fill="white" stroke="black" stroke-width="2.64756"/>
<rect x="31.3238" y="30.3238" width="22.3524" height="25.3524" rx="3.08882" fill="white" stroke="black" stroke-width="2.64756"/>
<rect x="7.50347" y="1.32378" width="24.7106" height="4.4126" rx="2.2063" fill="white" stroke="black" stroke-width="2.64756"/>
<path d="M11.5703 27.6094H24.7941" stroke="black" stroke-width="2.64756" stroke-linecap="round"/>
<path d="M38 47H48" stroke="black" stroke-width="2.64756" stroke-linecap="round"/>
<path d="M11.5703 35.0508H19.8352" stroke="black" stroke-width="2.64756" stroke-linecap="round"/>
<path d="M38 50H49" stroke="black" stroke-width="2.64756" stroke-linecap="round"/>
</svg>
