<svg width="72" height="47" viewBox="0 0 72 47" fill="none" xmlns="http://www.w3.org/2000/svg">
<path d="M1.32378 35.8954C1.32378 34.6303 2.09521 33.4932 3.27067 33.0255L34.2464 20.7006C34.9768 20.4099 35.7906 20.4088 36.522 20.6973L67.783 33.0315C68.9628 33.497 69.7381 34.6364 69.7381 35.9047V42.1218C69.7381 43.8277 68.3552 45.2107 66.6493 45.2107H4.4126C2.70669 45.2107 1.32378 43.8277 1.32378 42.1218V35.8954Z" fill="white" stroke="black" stroke-width="2.64756"/>
<path d="M44.5758 21.9167C44.5758 21.9726 44.5521 22.1678 44.203 22.4908C43.8524 22.8151 43.2724 23.1681 42.4446 23.4921C40.797 24.1368 38.4308 24.5642 35.7506 24.5642C33.0703 24.5642 30.7041 24.1368 29.0565 23.4921C28.2287 23.1681 27.6487 22.8151 27.2981 22.4908C26.949 22.1678 26.9253 21.9726 26.9253 21.9167C26.9253 21.8607 26.949 21.6655 27.2981 21.3425C27.6487 21.0182 28.2287 20.6652 29.0565 20.3413C30.7041 19.6966 33.0703 19.2691 35.7506 19.2691C38.4308 19.2691 40.797 19.6966 42.4446 20.3413C43.2724 20.6652 43.8524 21.0182 44.203 21.3425C44.5521 21.6655 44.5758 21.8607 44.5758 21.9167Z" fill="white" stroke="black" stroke-width="2.64756"/>
<circle cx="35.7503" cy="11.3245" r="9.70773" fill="white" stroke="black" stroke-width="2.64756"/>
<line x1="1" y1="34.6762" x2="70" y2="34.6762" stroke="black" stroke-width="2.64756"/>
</svg>
