<svg width="91" height="57" viewBox="0 0 91 57" fill="none" xmlns="http://www.w3.org/2000/svg">
<path d="M35.8802 43.9513L27.8158 53.5665C27.4962 53.9475 26.925 53.9894 26.5533 53.659L24.3883 51.7345C24.0901 51.4694 24.0068 51.0372 24.1853 50.6803L28.4382 42.1745C28.6071 41.8366 28.9724 41.6437 29.3468 41.6947L35.3232 42.5097C36.0115 42.6036 36.3266 43.419 35.8802 43.9513Z" fill="white" stroke="black" stroke-width="2.64756"/>
<path d="M36.4509 29.9178L26.4844 40.1239L31.5795 40.0536L77.0251 44.112C77.3205 44.1384 77.6093 44.0147 77.794 43.7828L89.0052 29.7037C88.5416 28.313 87.3996 27.2556 85.9775 26.9L85.2837 26.7266H44.0277C41.1754 26.7266 38.4437 27.8771 36.4509 29.9178Z" fill="white" stroke="black" stroke-width="2.64756"/>
<path d="M23.3312 43.4346L24.464 44.1196L23.3312 43.4346C21.6091 46.2825 21.7446 49.7439 21.8825 52.0458C21.9939 53.9059 23.5922 55.3235 25.4523 55.2121C27.3124 55.1007 28.7301 53.5024 28.6186 51.6423C28.4694 49.1503 28.6085 47.7487 29.1058 46.9264C29.3634 46.5003 30.1731 45.4791 33.8472 45.4791H74.4227C76.2862 45.4791 77.7968 43.9685 77.7968 42.105C77.7968 40.2415 76.2862 38.7309 74.4227 38.7309H33.8472C28.9383 38.7309 25.299 40.1803 23.3312 43.4346Z" fill="white" stroke="black" stroke-width="2.64756" stroke-linecap="round"/>
<path d="M85.9243 28.6943C86.394 28.1341 86.3207 27.2991 85.7605 26.8294C85.2003 26.3596 84.3653 26.433 83.8955 26.9932L85.9243 28.6943ZM76.9753 39.3669L85.9243 28.6943L83.8955 26.9932L74.9466 37.6658L76.9753 39.3669Z" fill="black"/>
<path d="M15.7474 19.2403L7.68298 28.8556C7.36339 29.2366 6.7922 29.2785 6.42049 28.948L4.25551 27.0236C3.95726 26.7585 3.87401 26.3262 4.05247 25.9693L8.30536 17.4636C8.47431 17.1256 8.83962 16.9328 9.21395 16.9838L15.1904 17.7988C15.8787 17.8926 16.1938 18.7081 15.7474 19.2403Z" fill="white" stroke="black" stroke-width="2.64756"/>
<path d="M16.3181 5.20688L6.35156 15.4129L11.4467 15.3427L56.8923 19.4011C57.1877 19.4275 57.4765 19.3038 57.6612 19.0718L68.8723 4.99281C68.4088 3.6021 67.2668 2.54461 65.8447 2.18907L65.1509 2.01562H23.8949C21.0426 2.01562 18.3109 3.16619 16.3181 5.20688Z" fill="white" stroke="black" stroke-width="2.64756"/>
<path d="M3.19838 18.7236L4.33117 19.4086L3.19838 18.7236C1.47627 21.5716 1.61182 25.033 1.7497 27.3348C1.86112 29.195 3.45937 30.6126 5.3195 30.5012C7.17963 30.3897 8.59725 28.7915 8.48583 26.9314C8.33657 24.4394 8.47569 23.0378 8.97294 22.2155C9.23059 21.7894 10.0402 20.7682 13.7144 20.7682H54.2899C56.1533 20.7682 57.664 19.2575 57.664 17.3941C57.664 15.5306 56.1533 14.02 54.2899 14.02H13.7144C8.80547 14.02 5.16619 15.4694 3.19838 18.7236Z" fill="white" stroke="black" stroke-width="2.64756" stroke-linecap="round"/>
<path d="M65.7915 3.98337C66.2612 3.42314 66.1879 2.58819 65.6277 2.11844C65.0674 1.64869 64.2325 1.72203 63.7627 2.28226L65.7915 3.98337ZM56.8425 14.6559L65.7915 3.98337L63.7627 2.28226L54.8138 12.9548L56.8425 14.6559Z" fill="black"/>
</svg>
