<svg width="83" height="49" viewBox="0 0 83 49" fill="none" xmlns="http://www.w3.org/2000/svg">
<path d="M6.78853 24.5381C7.35858 23.9681 8.12889 23.6435 8.935 23.6337L38.8558 23.2688C40.5763 23.2478 41.9822 24.6367 41.9822 26.3574V38.0702C41.9822 38.7385 41.7655 39.3888 41.3645 39.9235L37.223 45.4455C36.5362 46.3612 35.3993 46.822 34.2688 46.643L8.83422 42.6148C7.79324 42.4499 6.90817 41.7656 6.48653 40.7997L2.47954 31.6202C1.97123 30.4558 2.22785 29.0988 3.12628 28.2004L6.78853 24.5381Z" fill="white" stroke="black" stroke-width="2.64756"/>
<rect x="1.32378" y="28.0699" width="36.2815" height="19.4473" rx="3.08882" fill="white" stroke="black" stroke-width="2.64756"/>
<path d="M45.7885 24.5381C46.3586 23.9681 47.1289 23.6435 47.935 23.6337L77.8558 23.2688C79.5763 23.2478 80.9822 24.6367 80.9822 26.3574V38.0702C80.9822 38.7385 80.7655 39.3888 80.3645 39.9235L76.223 45.4455C75.5362 46.3612 74.3993 46.822 73.2688 46.643L47.8342 42.6148C46.7932 42.4499 45.9082 41.7656 45.4865 40.7997L41.4795 31.6202C40.9712 30.4558 41.2278 29.0988 42.1263 28.2004L45.7885 24.5381Z" fill="white" stroke="black" stroke-width="2.64756"/>
<rect x="40.3238" y="28.0699" width="36.2815" height="19.4473" rx="3.08882" fill="white" stroke="black" stroke-width="2.64756"/>
<path d="M28.851 3.35844C29.4211 2.7884 30.1914 2.46381 30.9975 2.45398L60.9183 2.08909C62.6388 2.06811 64.0447 3.45704 64.0447 5.17768V16.8905C64.0447 17.5588 63.828 18.2091 63.427 18.7438L59.2855 24.2658C58.5987 25.1815 57.4618 25.6423 56.3313 25.4633L30.8967 21.4351C29.8557 21.2702 28.9707 20.586 28.549 19.62L24.542 10.4405C24.0337 9.27607 24.2903 7.91913 25.1888 7.02069L28.851 3.35844Z" fill="white" stroke="black" stroke-width="2.64756"/>
<rect x="23.3863" y="6.89019" width="36.2815" height="19.4473" rx="3.08882" fill="white" stroke="black" stroke-width="2.64756"/>
</svg>
