<svg width="123" height="50" viewBox="0 0 123 50" fill="none" xmlns="http://www.w3.org/2000/svg">
<path d="M57.9966 23.7942L51.8409 29.9499C51.4878 30.303 50.9124 30.2931 50.5717 29.928L27.482 5.1891C27.0288 4.70355 27.2542 3.91027 27.895 3.73551L35.9568 1.53683C36.1108 1.49483 36.2733 1.49538 36.427 1.53842L57.6106 7.46982C57.9917 7.57653 58.2551 7.9239 58.2551 8.31966V23.1701C58.2551 23.4042 58.1621 23.6287 57.9966 23.7942Z" fill="white" stroke="black" stroke-width="2.64756"/>
<path d="M1.32378 13.8475C1.32378 12.4808 2.22191 11.2766 3.53186 10.8869L25.6825 4.2973C26.2542 4.12724 26.8628 4.12631 27.435 4.29463L49.8706 10.8947C51.1851 11.2814 52.0877 12.4878 52.0877 13.858V28.2387C52.0877 29.9446 50.7048 31.3276 48.9989 31.3276H4.41261C2.70669 31.3276 1.32378 29.9446 1.32378 28.2387V13.8475Z" fill="white" stroke="black" stroke-width="2.64756"/>
<rect x="25.4797" y="11.5461" width="1.97506" height="13.8254" rx="0.987528" fill="white" stroke="black" stroke-width="1.97506"/>
<rect x="8.93284" y="17.0774" width="1.97506" height="8.29524" rx="0.987528" fill="white" stroke="black" stroke-width="1.97506"/>
<rect x="42.4719" y="17.0774" width="1.97506" height="8.29524" rx="0.987528" fill="white" stroke="black" stroke-width="1.97506"/>
<rect x="34.4216" y="13.8278" width="1.76504" height="11.4728" rx="0.882521" fill="white" stroke="black" stroke-width="1.76504"/>
<rect x="16.7731" y="13.8278" width="1.76504" height="11.4728" rx="0.882521" fill="white" stroke="black" stroke-width="1.76504"/>
<line x1="50.4937" y1="12.7056" x2="57.5539" y2="8.29296" stroke="black" stroke-width="2.64756"/>
<path d="M120.661 40.5598L114.505 46.7155C114.152 47.0686 113.576 47.0587 113.236 46.6937L90.1461 21.9547C89.6929 21.4692 89.9182 20.6759 90.559 20.5011L98.6209 18.3025C98.7748 18.2605 98.9373 18.261 99.091 18.304L120.275 24.2354C120.656 24.3422 120.919 24.6895 120.919 25.0853V39.9358C120.919 40.1698 120.826 40.3943 120.661 40.5598Z" fill="white" stroke="black" stroke-width="2.64756"/>
<path d="M63.9957 30.617C63.9957 29.2503 64.8938 28.0461 66.2037 27.6564L88.3544 21.0668C88.926 20.8968 89.5347 20.8958 90.1069 21.0642L112.542 27.6642C113.857 28.0509 114.76 29.2573 114.76 30.6275V45.0083C114.76 46.7142 113.377 48.0971 111.671 48.0971H67.0845C65.3786 48.0971 63.9957 46.7142 63.9957 45.0083V30.617Z" fill="white" stroke="black" stroke-width="2.64756"/>
<rect x="88.1516" y="28.3157" width="1.97506" height="13.8254" rx="0.987528" fill="white" stroke="black" stroke-width="1.97506"/>
<rect x="76.3078" y="33.843" width="1.97506" height="8.29524" rx="0.987528" fill="white" stroke="black" stroke-width="1.97506"/>
<rect x="101.581" y="33.843" width="1.97506" height="8.29524" rx="0.987528" fill="white" stroke="black" stroke-width="1.97506"/>
<line x1="113.158" y1="29.4712" x2="120.218" y2="25.0586" stroke="black" stroke-width="2.64756"/>
</svg>
