<svg width="23" height="20" viewBox="0 0 23 20" fill="none" xmlns="http://www.w3.org/2000/svg">
<path d="M4.60381 1.01563H1.03906M4.88899 1.01562L7.45561 10.3352C7.66984 11.0702 8.11478 11.7166 8.72464 12.179C9.33451 12.6414 10.0769 12.8952 10.8421 12.9029H21.2274V1.01562H4.88899ZM12.9216 17.0634C12.9216 18.0482 12.1236 18.8465 11.1392 18.8465C10.1548 18.8465 9.35681 18.0482 9.35681 17.0634C9.35681 16.0786 10.1548 15.2803 11.1392 15.2803C12.1236 15.2803 12.9216 16.0786 12.9216 17.0634ZM21.2393 17.0634C21.2393 18.0482 20.4413 18.8465 19.4569 18.8465C18.4725 18.8465 17.6746 18.0482 17.6746 17.0634C17.6746 16.0786 18.4725 15.2803 19.4569 15.2803C20.4413 15.2803 21.2393 16.0786 21.2393 17.0634Z" stroke="currentColor" stroke-width="2" stroke-linecap="round" stroke-linejoin="round"/>
</svg>
