<svg width="20" height="20" viewBox="0 0 20 20" fill="none" xmlns="http://www.w3.org/2000/svg">
<path d="M10.4581 9.99799L19.9056 0.550468C20.0315 0.424525 20.0315 0.220371 19.9056 0.0944273C19.7796 -0.0314758 19.5755 -0.0314758 19.4495 0.0944273L10.002 9.54195L0.554498 0.0944273C0.426377 -0.0292988 0.222223 -0.0257511 0.0984571 0.102369C-0.0222453 0.227345 -0.0222453 0.425492 0.0984571 0.550468L9.54598 9.99799L0.0984571 19.4455C-0.0296632 19.5693 -0.0332109 19.7734 0.0905554 19.9016C0.214322 20.0297 0.418476 20.0332 0.546596 19.9095C0.549297 19.9069 0.551918 19.9042 0.554498 19.9016L10.002 10.454L19.4495 19.9016C19.5777 20.0253 19.7818 20.0218 19.9056 19.8937C20.0263 19.7687 20.0263 19.5705 19.9056 19.4455L10.4581 9.99799Z" fill="currentColor"/>
</svg>
