<svg width="29" height="32" viewBox="0 0 29 32" fill="none" xmlns="http://www.w3.org/2000/svg">
<path d="M6.1875 7.70703H1.5625M6.5575 7.70703L9.8875 19.7937C10.1654 20.7468 10.7427 21.5852 11.534 22.1849C12.3252 22.7846 13.2885 23.1138 14.2813 23.1237H27.7554V7.70703H6.5575ZM16.9792 28.5195C16.9792 29.7967 15.9438 30.832 14.6667 30.832C13.3895 30.832 12.3542 29.7967 12.3542 28.5195C12.3542 27.2424 13.3895 26.207 14.6667 26.207C15.9438 26.207 16.9792 27.2424 16.9792 28.5195ZM27.7708 28.5195C27.7708 29.7967 26.7355 30.832 25.4583 30.832C24.1812 30.832 23.1458 29.7967 23.1458 28.5195C23.1458 27.2424 24.1812 26.207 25.4583 26.207C26.7355 26.207 27.7708 27.2424 27.7708 28.5195Z" stroke="currentColor" stroke-width="2" stroke-linecap="round" stroke-linejoin="round"/>
<path d="M18.1927 13.1042C21.8113 13.1042 24.7448 10.1707 24.7448 6.55208C24.7448 2.93347 21.8113 0 18.1927 0C14.5741 0 11.6406 2.93347 11.6406 6.55208C11.6406 10.1707 14.5741 13.1042 18.1927 13.1042Z" fill="#ED1C24"/>
</svg>
