<svg width="18" height="18" viewBox="0 0 18 18" fill="none" xmlns="http://www.w3.org/2000/svg">
<path d="M14.4948 7.10059C14.4948 7.10059 14.0876 12.1518 13.8513 14.2796C13.7388 15.2958 13.1111 15.8913 12.0828 15.9101C10.1261 15.9453 8.16706 15.9476 6.21106 15.9063C5.22181 15.8861 4.60456 15.2831 4.49431 14.2848C4.25656 12.1383 3.85156 7.10059 3.85156 7.10059" stroke="currentColor" stroke-width="2" stroke-linecap="round" stroke-linejoin="round"/>
<path d="M15.531 4.67871H2.8125" stroke="currentColor" stroke-width="2" stroke-linecap="round" stroke-linejoin="round"/>
<path d="M13.0829 4.67925C12.4941 4.67925 11.9871 4.263 11.8716 3.68625L11.6894 2.77425C11.5769 2.3535 11.1959 2.0625 10.7616 2.0625H7.58688C7.15263 2.0625 6.77163 2.3535 6.65913 2.77425L6.47688 3.68625C6.36138 4.263 5.85438 4.67925 5.26562 4.67925" stroke="currentColor" stroke-width="2" stroke-linecap="round" stroke-linejoin="round"/>
</svg>
