<svg width="21" height="25" viewBox="0 0 21 25" fill="none" xmlns="http://www.w3.org/2000/svg">
<path d="M15.9014 3.63872C16.8605 4.19247 17.5604 5.06756 17.8699 6.10285C18.1795 7.13816 18.0645 8.21284 17.5414 9.12463L12.6891 17.5349C12.388 18.0564 12.5924 18.7402 13.1448 19.0591L13.1624 19.0693C13.7148 19.3882 14.4105 19.2209 14.7103 18.7018L19.5576 10.2887C19.9709 9.57272 20.2238 8.79258 20.3064 7.97103C20.3868 7.17663 20.3097 6.37667 20.0769 5.59114C19.8428 4.80799 19.4631 4.07985 18.9499 3.42637C18.4196 2.75038 17.7647 2.18576 17.0089 1.74944L16.9938 1.74074C16.2331 1.3015 15.4166 1.01663 14.5636 0.893926C13.7385 0.774769 12.9167 0.812349 12.1189 0.999734C11.3222 1.19092 10.5884 1.52268 9.94057 1.98947C9.26905 2.47418 8.72125 3.08089 8.30539 3.79538L0.799631 16.8247C0.148353 17.947 -0.00398648 19.2719 0.379763 20.5555C0.754135 21.8148 1.58352 22.8658 2.71586 23.5196C3.85073 24.1748 5.17948 24.3666 6.45836 24.065C7.76322 23.7532 8.83951 22.9617 9.49104 21.8332L13.8777 14.2352C14.3677 13.3865 14.507 12.4554 14.2984 11.5701C13.8282 9.56641 11.7648 8.53634 9.96087 8.96464C8.99487 9.19399 8.2193 9.85885 7.73615 10.6957L5.96299 13.7843C5.66188 14.3058 5.86631 14.9897 6.41868 15.3086L6.43876 15.3202C6.99114 15.6391 7.68556 15.4742 7.98668 14.9527L8.00173 14.9266C8.14957 14.6705 9.7539 11.8859 9.7662 11.8646C10.6189 10.3877 12.7165 11.5671 11.8501 13.0678L7.46736 20.6648L7.40164 20.7786C7.10053 21.3002 6.55132 21.7006 5.89888 21.8739C5.2451 22.0496 4.53735 21.9824 3.95691 21.6947C3.91035 21.671 3.86631 21.6487 3.82112 21.6226C3.23862 21.2863 2.81193 20.7207 2.618 20.0303C2.43227 19.3604 2.4928 18.6526 2.79027 18.0909L2.85046 17.9867L10.3407 4.96101L10.3969 4.86381C10.935 3.99548 11.7982 3.38753 12.8335 3.15399C13.8673 2.92901 14.9585 3.0975 15.9014 3.63872Z" fill="currentColor"/>
</svg>
