<svg width="15" height="20" viewBox="0 0 15 20" fill="none" xmlns="http://www.w3.org/2000/svg">
<path d="M6.88325 18.1676C6.30457 17.2995 5.53299 16.2386 4.56853 14.8883C3.41116 13.2487 2.63959 12.0914 2.35025 11.5127C1.77157 10.7411 1.38578 10.066 1.1929 9.48727C1 8.90863 1 8.2335 1 7.55838C1 6.40101 1.28933 5.24365 1.86802 4.27918C2.4467 3.31472 3.21827 2.4467 4.27918 1.86802C5.24365 1.28934 6.40101 1 7.55841 1C8.71569 1 9.87306 1.28934 10.8375 1.86802C11.802 2.4467 12.67 3.21828 13.2487 4.27918C13.8274 5.24365 14.1168 6.40101 14.1168 7.55838C14.1168 8.32995 14.0203 8.90863 13.8274 9.48727C13.6345 10.066 13.2487 10.7411 12.7665 11.6091C12.3807 12.1878 11.6091 13.2487 10.5482 14.9848L8.23354 18.264C8.04065 18.4569 7.84775 18.5533 7.55841 18.5533C7.26903 18.5533 6.97969 18.4569 6.88325 18.1676ZM7.55841 10.2588C8.3299 10.2588 9.00504 9.9695 9.48727 9.48727C10.066 8.90863 10.2589 8.32995 10.2589 7.55838C10.2589 6.7868 9.96951 6.11167 9.48727 5.62944C8.90859 5.05076 8.3299 4.76142 7.55841 4.76142C6.7868 4.76142 6.11167 5.05076 5.62944 5.62944C5.05076 6.11167 4.76142 6.7868 4.76142 7.55838C4.76142 8.32995 5.05076 8.90863 5.62944 9.48727C6.11167 10.066 6.7868 10.2588 7.55841 10.2588Z" stroke="currentColor" stroke-width="1.5" stroke-linecap="round" stroke-linejoin="round"/>
</svg>
