<svg width="15" height="19" viewBox="0 0 15 19" fill="none" xmlns="http://www.w3.org/2000/svg">
<path fill-rule="evenodd" clip-rule="evenodd" d="M4.34476 1.53096C4.32082 1.54309 4.29551 1.5545 4.26883 1.5649L1.99116 3.08334C1.85232 3.18661 1.67559 3.43149 1.57473 3.91561C1.47429 4.39774 1.46664 5.04566 1.60399 5.82396L1.60523 5.83099L1.60519 5.83099C1.88688 7.5211 2.64556 9.61576 3.88514 11.5228C5.14792 13.4655 6.58398 15.0822 7.98356 16.1086C7.99606 16.1178 8.00826 16.1273 8.02017 16.1372C8.50237 16.5391 9.08134 16.7976 9.70651 16.9792C9.98333 17.0281 10.2725 16.9814 10.522 16.8721L12.7133 15.062L12.7532 15.022L9.63295 12.1943L9.46497 12.3622C9.43988 12.3873 9.41303 12.4106 9.38464 12.4319C8.6383 12.9917 7.57445 12.7958 7.03964 12.0827C7.03132 12.0716 7.0233 12.0603 7.01561 12.0487C6.87872 11.8434 6.73259 11.6426 6.57292 11.4232C6.51182 11.3392 6.44875 11.2526 6.38345 11.1619C6.15958 10.851 5.92206 10.5092 5.70637 10.1347C5.29337 9.51284 4.87662 8.78318 4.55937 8.04291L4.55237 8.02602C4.20528 7.15828 4.57769 6.31705 5.19721 5.85241L5.19722 5.8524L5.5957 5.55354C5.60226 5.54862 5.60891 5.5438 5.61563 5.5391L4.34476 1.53096ZM5.63178 5.58996C5.63184 5.5907 5.63191 5.59178 5.63191 5.59318C5.63191 5.59602 5.63164 5.59757 5.63163 5.59758C5.63162 5.5976 5.63187 5.5962 5.63285 5.59318L5.63304 5.59375C5.63297 5.59355 5.63291 5.59336 5.63285 5.59318M5.77033 1.06413C5.55067 0.244778 4.74722 -0.114448 4.03465 0.0319184C3.99598 0.0371406 3.95687 0.0450703 3.91761 0.0560625C3.83745 0.0785052 3.76753 0.110665 3.7079 0.146439C3.68146 0.162299 3.65791 0.178358 3.63731 0.193605C3.60285 0.209636 3.56952 0.228329 3.53763 0.249589L1.14672 1.84353C1.14001 1.848 1.13338 1.85258 1.12682 1.85727C0.569386 2.25543 0.252624 2.90712 0.106259 3.60968C-0.0421554 4.32207 -0.0347211 5.1672 0.126185 6.08109C0.442676 7.97667 1.27773 10.2638 2.62747 12.3403C3.94974 14.3745 5.49549 16.1392 7.07821 17.3047C7.77878 17.8829 8.57554 18.2162 9.32643 18.4307C9.34587 18.4362 9.36553 18.441 9.38535 18.445C10.0705 18.582 10.7378 18.4435 11.2625 18.1811C11.3132 18.1557 11.3609 18.1247 11.4047 18.0885L13.6961 16.1957C13.7144 16.1806 13.732 16.1646 13.7487 16.1478L13.8484 16.0482L13.3588 15.5587L13.8484 16.0482C14.1183 15.7783 14.2922 15.4198 14.2922 15.0198C14.2922 14.6198 14.1183 14.2614 13.8484 13.9914C13.8397 13.9827 13.8308 13.9743 13.8217 13.966L10.6442 11.0864C10.2383 10.6953 9.46131 10.48 8.81757 10.909C8.77643 10.9364 8.73811 10.9678 8.70316 11.0027L8.46086 11.245C8.43888 11.2539 8.4075 11.2594 8.36676 11.253C8.31255 11.2444 8.27121 11.2189 8.24682 11.1915C8.09583 10.9665 7.92918 10.7375 7.76935 10.5179C7.71192 10.439 7.65537 10.3613 7.60074 10.2854C7.38079 9.97994 7.17506 9.68163 6.99574 9.36779C6.98719 9.35284 6.97814 9.33819 6.96859 9.32386C6.59127 8.75788 6.21893 8.10505 5.94254 7.46241C5.91297 7.38468 5.91599 7.32044 5.93533 7.2624C5.95734 7.19638 6.00819 7.11917 6.09722 7.0524L6.42197 6.80884C6.76707 6.64322 6.96516 6.33965 7.05606 6.06694C7.1565 5.76562 7.15719 5.42741 7.05811 5.12558L5.77033 1.06413Z" fill="currentColor"/>
</svg>
