<svg width="27" height="23" viewBox="0 0 27 23" fill="none" xmlns="http://www.w3.org/2000/svg">
<path d="M1 7C1 3.6863 3.68629 1 7 1H25C25.5523 1 26 1.44772 26 2V20.6452C26 21.1974 25.5523 21.6452 25 21.6452H2C1.44772 21.6452 1 21.1974 1 20.6452V7Z" fill="white" stroke="currentColor" stroke-width="2"/>
<path d="M1 4.74193C1 2.67532 2.67532 1 4.74194 1C4.93791 1 5.09677 1.15887 5.09677 1.35484V4.96774C5.09677 5.52003 4.64906 5.96774 4.09677 5.96774H1.54839C1.24552 5.96774 1 5.72222 1 5.41935V4.74193Z" fill="white" stroke="currentColor" stroke-width="2"/>
<path d="M6.91594 7.82356V6.72266H8.33736V7.82356H6.91594ZM6.91594 12.7707V11.6698H8.33736V12.7707H6.91594ZM9.81452 10.1647V9.32859H11.0827V10.1647H9.81452ZM11.0827 9.32859H9.81452C9.81452 8.84549 9.67981 8.47388 9.4104 8.21375C9.15027 7.95362 8.78794 7.82356 8.32343 7.82356V6.72266C8.87156 6.72266 9.35001 6.83414 9.75878 7.05711C10.1768 7.27079 10.502 7.57737 10.7343 7.97685C10.9665 8.36704 11.0827 8.81762 11.0827 9.32859ZM11.0827 10.1508C11.0827 10.671 10.9665 11.1263 10.7343 11.5165C10.502 11.9067 10.1768 12.2132 9.75878 12.4362C9.35001 12.6592 8.87156 12.7707 8.32343 12.7707V11.6698C8.78794 11.6698 9.15027 11.535 9.4104 11.2656C9.67981 10.9962 9.81452 10.6246 9.81452 10.1508H11.0827ZM6.09375 16.5472V6.72266H7.36188V16.5472H6.09375Z" fill="currentColor"/>
<path d="M16.0889 13.9412V9.32859H17.357V13.9412H16.0889ZM13.2321 16.5472V15.4463H14.6117V16.5472H13.2321ZM13.2321 7.82356V6.72266H14.6117V7.82356H13.2321ZM13.2321 7.82356V6.72266H14.6117V7.82356H13.2321ZM17.357 9.32859H16.0889C16.0889 8.84549 15.9588 8.47388 15.6987 8.21375C15.4385 7.95362 15.0762 7.82356 14.6117 7.82356V6.72266C15.1505 6.72266 15.6244 6.83414 16.0331 7.05711C16.4512 7.27079 16.7764 7.57737 17.0086 7.97685C17.2409 8.36704 17.357 8.81762 17.357 9.32859ZM17.357 13.9273C17.357 14.4476 17.2409 14.9028 17.0086 15.293C16.7764 15.6832 16.4512 15.9898 16.0331 16.2127C15.6244 16.4357 15.1505 16.5472 14.6117 16.5472V15.4463C15.0762 15.4463 15.4385 15.3162 15.6987 15.0561C15.9588 14.7867 16.0889 14.4104 16.0889 13.9273H17.357ZM12.3402 16.5472V6.72266H13.6084V16.5472H12.3402Z" fill="currentColor"/>
<path d="M19.8739 12.2132V11.0845H22.6888V12.2132H19.8739ZM18.9541 6.72266H20.2223V16.5472H18.9541V6.72266ZM19.8042 6.72266H23.3856V7.82356H19.8042V6.72266Z" fill="currentColor"/>
</svg>
