<svg width="24" height="24" viewBox="0 0 24 24" fill="none" xmlns="http://www.w3.org/2000/svg">
<path d="M10.5695 0C4.74165 0 0 4.74165 0 10.5695C0 16.3977 4.74165 21.139 10.5695 21.139C16.3977 21.139 21.139 16.3977 21.139 10.5695C21.139 4.74165 16.3977 0 10.5695 0ZM10.5695 19.1878C5.81747 19.1878 1.9513 15.3216 1.9513 10.5696C1.9513 5.81752 5.81747 1.9513 10.5695 1.9513C15.3216 1.9513 19.1877 5.81747 19.1877 10.5695C19.1877 15.3216 15.3216 19.1878 10.5695 19.1878Z" fill="currentColor"/>
<path d="M23.7039 22.3322L18.1106 16.739C17.7295 16.3578 17.1123 16.3578 16.7312 16.739C16.35 17.1198 16.35 17.7376 16.7312 18.1184L22.3244 23.7117C22.515 23.9022 22.7644 23.9975 23.0142 23.9975C23.2636 23.9975 23.5133 23.9022 23.7039 23.7117C24.085 23.3309 24.085 22.713 23.7039 22.3322Z" fill="currentColor"/>
</svg>
