<svg width="66" height="29" viewBox="0 0 66 29" fill="none" xmlns="http://www.w3.org/2000/svg">
<path fill-rule="evenodd" clip-rule="evenodd" d="M14.1463 0H60.6178C63.5638 0 66.0063 1.9739 66 4.44573V24.25C66 26.6802 63.6079 28.6957 60.6178 28.6957H14.1526C12.4026 28.6957 10.7911 28.0081 9.77762 26.87L1.03395 16.9885C-0.344648 15.4296 -0.344648 13.3015 1.03395 11.7426L9.77133 1.86127C10.7848 0.723171 12.3963 0.0355657 14.1463 0ZM10.56 15.6522C11.289 15.6522 11.88 15.0681 11.88 14.3479C11.88 13.6275 11.289 13.0435 10.56 13.0435C9.83099 13.0435 9.24 13.6275 9.24 14.3479C9.24 15.0681 9.83099 15.6522 10.56 15.6522Z" fill="#ED1C24"/>
</svg>
