<svg width="48" height="93" viewBox="0 0 48 93" fill="none" xmlns="http://www.w3.org/2000/svg">
<path id="Vector" d="M24 0.015625C21.1549 0.015625 0 28.3893 0 53.7834C0 69.4024 9.6378 82.2197 21.9003 83.5265V92.0156H26.0997V83.5265C38.6982 82.2197 48 69.4024 48 53.7834C48 28.3893 27.1496 0.015625 24 0.015625ZM21.9003 79.3343C12.7454 78.1215 5.41732 69.1097 4.34646 56.9197L21.9003 74.4102V79.3343ZM21.9003 68.4929L4.29396 50.9606C4.48294 48.1682 4.94488 45.3246 5.6063 42.5029L21.9003 58.7284V68.4929ZM21.9003 52.8111L6.86614 37.8402C7.62205 35.3938 8.49344 32.9788 9.44882 30.6474L21.9003 43.0465V52.8111ZM21.9003 37.1293L11.2441 26.5074C12.3045 24.2074 13.4068 22.0224 14.5092 19.9943L21.9003 27.3647V37.1293ZM21.9003 21.4474L16.6614 16.2306C18.6667 12.8434 20.5354 10.1356 21.9003 8.41062V21.4474ZM26.0997 8.41062C27.1496 10.1356 29.3333 12.8434 31.3386 16.2306L26.0997 21.4474V8.41062ZM26.0997 27.3647L33.5643 19.9943C34.6667 22.0224 35.7365 24.2074 36.7979 26.5074L26.0997 37.1293V27.3647ZM26.0997 43.0465L38.6247 30.6474C39.5801 32.9788 40.4095 35.3938 41.1769 37.8402L26.0997 52.8111V43.0465ZM26.0997 58.7284L42.4672 42.5029C43.1286 45.3256 43.5486 48.1682 43.7375 50.9606L26.0997 68.4929V58.7284ZM26.0997 79.3343V74.4102L43.6535 56.9197C42.5827 69.1097 35.5486 78.1215 26.0997 79.3343Z" fill="white"/>
</svg>
