<svg width="133" height="92" viewBox="0 0 133 92" fill="none" xmlns="http://www.w3.org/2000/svg">
<g id="Group 1321315597">
<g id="Group 1321315595">
<g id="Rectangle 2910">
<mask id="path-1-inside-1_7161_6162" fill="white">
<path d="M47.6562 29.7812L43.4508 30.7153C42.3725 30.9547 41.6925 32.023 41.932 33.1013L44.1908 43.2716C44.4303 44.3499 45.4985 45.0299 46.5768 44.7904L50.7823 43.8564L47.6562 29.7812Z"/>
</mask>
<path d="M47.6562 29.7812L43.4508 30.7153C42.3725 30.9547 41.6925 32.023 41.932 33.1013L44.1908 43.2716C44.4303 44.3499 45.4985 45.0299 46.5768 44.7904L50.7823 43.8564L47.6562 29.7812Z" fill="#1F2937" stroke="white" stroke-width="6.30793" mask="url(#path-1-inside-1_7161_6162)"/>
</g>
<path id="Rectangle 2911" d="M46.3682 21.3409C46.2644 20.1362 47.0684 19.0407 48.2488 18.7785L60.4028 16.0791C61.7036 15.7902 62.9923 16.6105 63.2811 17.9113L70.1597 48.8824C70.4486 50.1831 69.6283 51.4718 68.3276 51.7607L52.0441 55.3772C50.6197 55.6935 49.2426 54.6829 49.1173 53.2292L46.3682 21.3409Z" fill="#1F2937" stroke="white" stroke-width="4"/>
<g id="Rectangle 2912">
<mask id="path-3-inside-2_7161_6162" fill="white">
<path d="M65.25 25.875L70.3352 24.7456C71.4135 24.5061 72.4817 25.1861 72.7212 26.2644L74.98 36.4347C75.2195 37.513 74.5395 38.5813 73.4612 38.8208L68.376 39.9502L65.25 25.875Z"/>
</mask>
<path d="M65.25 25.875L70.3352 24.7456C71.4135 24.5061 72.4817 25.1861 72.7212 26.2644L74.98 36.4347C75.2195 37.513 74.5395 38.5813 73.4612 38.8208L68.376 39.9502L65.25 25.875Z" fill="#1F2937" stroke="white" stroke-width="7.20906" mask="url(#path-3-inside-2_7161_6162)"/>
</g>
<g id="Rectangle 2913">
<mask id="path-4-inside-3_7161_6162" fill="white">
<path d="M70.0469 26.6562L124.395 14.5857C125.473 14.3462 126.542 15.0262 126.781 16.1045L128.258 22.756C128.498 23.8343 127.818 24.9026 126.74 25.1421L72.3914 37.2126L70.0469 26.6562Z"/>
</mask>
<path d="M70.0469 26.6562L124.395 14.5857C125.473 14.3462 126.542 15.0262 126.781 16.1045L128.258 22.756C128.498 23.8343 127.818 24.9026 126.74 25.1421L72.3914 37.2126L70.0469 26.6562Z" fill="#1F2937" stroke="white" stroke-width="8" mask="url(#path-4-inside-3_7161_6162)"/>
</g>
</g>
<rect id="Rectangle 2886" x="30.8516" y="64.2578" width="48.0696" height="25.553" rx="2.4126" stroke="white" stroke-width="4"/>
<g id="Group 1321315593">
<path id="Line 965" d="M23.8438 52.8359L11 44.9766" stroke="white" stroke-width="4" stroke-linecap="round"/>
<path id="Line 966" d="M34.9609 52.6953L7.70871 18.9662" stroke="white" stroke-width="4" stroke-linecap="round"/>
<path id="Line 967" d="M38.9531 48.1055L32.4551 18.963" stroke="white" stroke-width="4" stroke-linecap="round"/>
</g>
</g>
</svg>
