<svg width="62" height="84" viewBox="0 0 62 84" fill="none" xmlns="http://www.w3.org/2000/svg">
<rect x="56" y="81.0156" width="50" height="28" rx="2.4126" transform="rotate(-180 56 81.0156)" stroke="white" stroke-width="4"/>
<path d="M61.9966 14.11C61.9861 13.7985 61.895 13.4922 61.7283 13.2278L53.8282 0.819273C53.5079 0.319279 52.9583 0.015625 52.3644 0.015625H9.63027C9.03901 0.015625 8.48686 0.319285 8.16647 0.819273L0.269087 13.2305C-0.126816 13.8457 -0.0799343 14.6808 0.370665 15.254L29.6391 52.3638C30.3007 53.2329 31.6994 53.2329 32.361 52.3638L61.6268 15.254C61.869 14.9268 62.0252 14.521 61.9966 14.11ZM19.1737 15.9163L26.9384 43.3242L5.32527 15.9163H19.1737ZM37.4189 3.50505L39.3567 12.4241H22.6404L24.5783 3.50505H37.4189ZM39.2135 15.9163L30.9987 44.9085L22.7839 15.9163H39.2135ZM42.8235 15.9163H56.6726L35.0595 43.3242L42.8235 15.9163ZM57.0914 12.4242H42.9089L40.9737 3.50511H51.4155L57.0914 12.4242ZM10.5805 3.50511H21.0224L19.0846 12.4242H4.90473L10.5805 3.50511Z" fill="white"/>
<path d="M12 60.0156L20 60.0156" stroke="white" stroke-width="4" stroke-linecap="round"/>
<path d="M20 70.0156H34" stroke="white" stroke-width="4" stroke-linecap="round"/>
<path d="M48 63.0156L56 63.0156" stroke="white" stroke-width="4" stroke-linecap="round"/>
</svg>
