<svg width="128" height="65" viewBox="0 0 128 65" fill="none" xmlns="http://www.w3.org/2000/svg">
<g id="logo">
<path id="Vector" fill-rule="evenodd" clip-rule="evenodd" d="M52.5893 8.52676L44.3586 16.6573L35.9141 8.13027L44.1451 0L52.5893 8.52676Z" fill="#ED1C24"/>
<path id="Vector_2" d="M34.0689 12.293L25.8698 24.5844L34.8496 39.5155H20.0815L14.2938 27.8464V39.5155H0V12.293H14.2928V22.8695L20.6587 12.293H34.0689Z" fill="#231F20"/>
<path id="Vector_3" d="M89.2569 12.293V39.5155H76.7299L69.2961 27.1403V39.5155H57.3438V12.293H69.2943L77.3064 24.5516V12.293H89.2569Z" fill="#231F20"/>
<path id="Vector_4" d="M127.788 22.312H113.495V19.8401C113.495 18.282 113.359 17.3067 113.088 16.9143C112.816 16.5218 112.171 16.3253 111.153 16.3248C110.27 16.3248 109.67 16.4929 109.352 16.8292C109.034 17.1654 108.876 18.0283 108.877 19.4177V32.4823C108.877 33.7043 109.035 34.5086 109.352 34.8953C109.669 35.2819 110.303 35.4753 111.253 35.4753C112.294 35.4753 113.001 35.2566 113.375 34.8194C113.749 34.3822 113.936 33.5304 113.935 32.2639V29.0347H111.051V24.901H127.788V39.5128H118.806L117.484 37.5625C116.41 38.4552 115.151 39.101 113.798 39.4539C112.086 39.9028 110.32 40.1149 108.549 40.0844C106.272 40.1006 104.003 39.8093 101.805 39.2184C99.7094 38.6414 98.1182 37.9268 97.0311 37.0748C95.9441 36.2227 95.2648 35.3287 94.9934 34.3927C94.7214 33.4569 94.5856 32.0529 94.5859 30.1808V22.0931C94.5859 19.4928 94.8689 17.604 95.4348 16.4268C96.0007 15.2496 97.6242 14.1707 100.305 13.1901C102.987 12.2094 106.456 11.7189 110.711 11.7188C114.898 11.7188 118.373 12.1447 121.134 12.9966C123.895 13.8485 125.695 14.8602 126.532 16.0316C127.369 17.2032 127.788 18.9043 127.788 21.1348V22.312Z" fill="#231F20"/>
<path id="Vector_5" d="M19.862 43.5586L15.082 53.2397L20.3173 64.9995H11.7074L8.33416 55.809V64.9995H0V43.5586H8.33416V51.888L12.0452 43.5586H19.862Z" fill="#ED1C24"/>
<path id="Vector_6" d="M30.0829 43.5586V60.7087H35.1502V64.9995H21.75V43.5586H30.0829Z" fill="#ED1C24"/>
<path id="Vector_7" d="M45.506 43.5586V64.9995H37.1719V43.5586H45.506Z" fill="#ED1C24"/>
<path id="Vector_8" d="M67.4498 43.5586V64.9995H60.1463L55.8118 55.2536V65.0005H48.8438V43.5586H55.8107L60.482 53.2133V43.5586H67.4498Z" fill="#ED1C24"/>
<path id="Vector_9" d="M90.6589 43.5586L85.8791 53.2397L91.1145 64.9995H82.5046L79.1297 55.809V64.9995H70.7969V43.5586H79.1297V51.888L82.841 43.5586H90.6589Z" fill="#ED1C24"/>
<path id="Vector_10" d="M92.5469 43.5586H106.441V47.8494H100.881V51.9152H106.087V55.994H100.881V60.7097H106.997V65.0005H92.5469V43.5586Z" fill="#ED1C24"/>
<path id="Vector_11" d="M109.391 43.5586H115.289C119.221 43.5586 121.883 43.6602 123.275 43.8633C124.547 44.0106 125.738 44.5554 126.68 45.4195C127.557 46.2536 127.996 47.5846 127.996 49.4125C127.996 51.0809 127.686 52.2022 127.066 52.7763C126.446 53.3504 125.225 53.6947 123.404 53.8092C125.053 54.0825 126.162 54.4489 126.729 54.9084C127.296 55.3678 127.649 55.7893 127.788 56.1729C127.927 56.5568 127.996 57.614 127.996 59.3445V64.9995H120.257V57.8747C120.257 56.7272 120.122 56.0165 119.851 55.7426C119.581 55.4687 118.872 55.332 117.723 55.3325V65H109.391V43.5586ZM117.723 47.2271V51.9941C118.66 51.9941 119.317 51.908 119.693 51.7358C120.069 51.5635 120.257 51.0052 120.257 50.0607V48.8817C120.257 48.202 120.075 47.7562 119.713 47.5442C119.35 47.3321 118.687 47.2264 117.723 47.2271Z" fill="#ED1C24"/>
<path id="Vector_12" d="M44.3433 19.5881L37.3125 12.4884V39.5157H51.6056V12.4141L44.3433 19.5881Z" fill="#231F20"/>
</g>
</svg>
