<svg width="0" height="0" class="hidden">
  <symbol fill="none" xmlns="http://www.w3.org/2000/svg" viewBox="0 0 7 13" id="ic_arr_hor">
    <path d="M6 1L1.61152 5.82733C1.26477 6.20875 1.26477 6.79125 1.61152 7.17267L6 12" stroke="currentColor" stroke-width="2" stroke-linecap="round"></path>
  </symbol>
  <symbol fill="none" xmlns="http://www.w3.org/2000/svg" viewBox="0 0 13 9" id="ic_arr_ver">
    <path fill-rule="evenodd" clip-rule="evenodd" d="M6.49991 8.12489L8.12489 6.49991L12.9998 1.625L11.3748 1.83655e-05L6.49991 4.87493L1.62498 0L0 1.62498L4.87494 6.49991L4.87492 6.49993L6.4999 8.12491L6.49991 8.12489Z" fill="currentColor"></path>
  </symbol>
  <symbol fill="none" xmlns="http://www.w3.org/2000/svg" viewBox="0 0 35 19" id="ic_arr_ver2">
    <path d="M1 1L17.5 17.5L34 1" stroke="currentColor" stroke-width="2"></path>
  </symbol>
  <symbol fill="none" xmlns="http://www.w3.org/2000/svg" viewBox="0 0 14 13" id="ic_arrow_hor">
    <path d="M1 6.78594L13 6.78594M13 6.78594L8.41485 1.98594M13 6.78594L8.41485 11.5859" stroke="currentColor" stroke-width="2" stroke-linecap="round" stroke-linejoin="round"></path>
  </symbol>
  <symbol fill="none" xmlns="http://www.w3.org/2000/svg" viewBox="0 0 29 32" id="ic_cart">
    <path d="M6.1875 7.70703H1.5625M6.5575 7.70703L9.8875 19.7937C10.1654 20.7468 10.7427 21.5852 11.534 22.1849C12.3252 22.7846 13.2885 23.1138 14.2813 23.1237H27.7554V7.70703H6.5575ZM16.9792 28.5195C16.9792 29.7967 15.9438 30.832 14.6667 30.832C13.3895 30.832 12.3542 29.7967 12.3542 28.5195C12.3542 27.2424 13.3895 26.207 14.6667 26.207C15.9438 26.207 16.9792 27.2424 16.9792 28.5195ZM27.7708 28.5195C27.7708 29.7967 26.7355 30.832 25.4583 30.832C24.1812 30.832 23.1458 29.7967 23.1458 28.5195C23.1458 27.2424 24.1812 26.207 25.4583 26.207C26.7355 26.207 27.7708 27.2424 27.7708 28.5195Z" stroke="currentColor" stroke-width="2" stroke-linecap="round" stroke-linejoin="round"></path>
    <path d="M18.1927 13.1042C21.8113 13.1042 24.7448 10.1707 24.7448 6.55208C24.7448 2.93347 21.8113 0 18.1927 0C14.5741 0 11.6406 2.93347 11.6406 6.55208C11.6406 10.1707 14.5741 13.1042 18.1927 13.1042Z" fill="#ED1C24"></path>
  </symbol>
  <symbol fill="none" xmlns="http://www.w3.org/2000/svg" viewBox="0 0 25 21" id="ic_email">
    <rect x="0.5" y="0.5" width="23.6038" height="19.3249" rx="2.5" stroke="currentColor"></rect>
    <path d="M1.0625 1.60127L11.3262 11.1319C11.7099 11.4881 12.3034 11.4881 12.6871 11.1319L23.5268 1.06641" stroke="currentColor"></path>
  </symbol>
  <symbol fill="none" xmlns="http://www.w3.org/2000/svg" viewBox="0 0 18 15" id="ic_email2">
    <rect x="0.75" y="0.75" width="15.8406" height="12.8249" rx="2.25" stroke="currentColor" stroke-width="1.5"></rect>
    <path d="M0.75 1.12697L7.78294 7.65756C8.16662 8.01383 8.76016 8.01383 9.14384 7.65756L16.5828 0.75" stroke="currentColor" stroke-width="1.5"></path>
  </symbol>
  <symbol fill="none" xmlns="http://www.w3.org/2000/svg" viewBox="0 0 15 20" id="ic_location">
    <path d="M6.88325 18.1676C6.30457 17.2995 5.53299 16.2386 4.56853 14.8883C3.41116 13.2487 2.63959 12.0914 2.35025 11.5127C1.77157 10.7411 1.38578 10.066 1.1929 9.48727C1 8.90863 1 8.2335 1 7.55838C1 6.40101 1.28933 5.24365 1.86802 4.27918C2.4467 3.31472 3.21827 2.4467 4.27918 1.86802C5.24365 1.28934 6.40101 1 7.55841 1C8.71569 1 9.87306 1.28934 10.8375 1.86802C11.802 2.4467 12.67 3.21828 13.2487 4.27918C13.8274 5.24365 14.1168 6.40101 14.1168 7.55838C14.1168 8.32995 14.0203 8.90863 13.8274 9.48727C13.6345 10.066 13.2487 10.7411 12.7665 11.6091C12.3807 12.1878 11.6091 13.2487 10.5482 14.9848L8.23354 18.264C8.04065 18.4569 7.84775 18.5533 7.55841 18.5533C7.26903 18.5533 6.97969 18.4569 6.88325 18.1676ZM7.55841 10.2588C8.3299 10.2588 9.00504 9.9695 9.48727 9.48727C10.066 8.90863 10.2589 8.32995 10.2589 7.55838C10.2589 6.7868 9.96951 6.11167 9.48727 5.62944C8.90859 5.05076 8.3299 4.76142 7.55841 4.76142C6.7868 4.76142 6.11167 5.05076 5.62944 5.62944C5.05076 6.11167 4.76142 6.7868 4.76142 7.55838C4.76142 8.32995 5.05076 8.90863 5.62944 9.48727C6.11167 10.066 6.7868 10.2588 7.55841 10.2588Z" stroke="currentColor" stroke-width="1.5" stroke-linecap="round" stroke-linejoin="round"></path>
  </symbol>
  <symbol fill="none" xmlns="http://www.w3.org/2000/svg" viewBox="0 0 19 18" id="ic_menu">
    <path fill-rule="evenodd" clip-rule="evenodd" d="M0 0L19 0V2L0 2V0Z" fill="currentColor"></path>
    <path fill-rule="evenodd" clip-rule="evenodd" d="M0 8L19 8V10L0 10V8Z" fill="currentColor"></path>
    <path fill-rule="evenodd" clip-rule="evenodd" d="M0 16L19 16V18L0 18V16Z" fill="currentColor"></path>
  </symbol>
  <symbol fill="none" xmlns="http://www.w3.org/2000/svg" viewBox="0 0 15 19" id="ic_phone">
    <path fill-rule="evenodd" clip-rule="evenodd" d="M4.34476 1.53096C4.32082 1.54309 4.29551 1.5545 4.26883 1.5649L1.99116 3.08334C1.85232 3.18661 1.67559 3.43149 1.57473 3.91561C1.47429 4.39774 1.46664 5.04566 1.60399 5.82396L1.60523 5.83099L1.60519 5.83099C1.88688 7.5211 2.64556 9.61576 3.88514 11.5228C5.14792 13.4655 6.58398 15.0822 7.98356 16.1086C7.99606 16.1178 8.00826 16.1273 8.02017 16.1372C8.50237 16.5391 9.08134 16.7976 9.70651 16.9792C9.98333 17.0281 10.2725 16.9814 10.522 16.8721L12.7133 15.062L12.7532 15.022L9.63295 12.1943L9.46497 12.3622C9.43988 12.3873 9.41303 12.4106 9.38464 12.4319C8.6383 12.9917 7.57445 12.7958 7.03964 12.0827C7.03132 12.0716 7.0233 12.0603 7.01561 12.0487C6.87872 11.8434 6.73259 11.6426 6.57292 11.4232C6.51182 11.3392 6.44875 11.2526 6.38345 11.1619C6.15958 10.851 5.92206 10.5092 5.70637 10.1347C5.29337 9.51284 4.87662 8.78318 4.55937 8.04291L4.55237 8.02602C4.20528 7.15828 4.57769 6.31705 5.19721 5.85241L5.19722 5.8524L5.5957 5.55354C5.60226 5.54862 5.60891 5.5438 5.61563 5.5391L4.34476 1.53096ZM5.63178 5.58996C5.63184 5.5907 5.63191 5.59178 5.63191 5.59318C5.63191 5.59602 5.63164 5.59757 5.63163 5.59758C5.63162 5.5976 5.63187 5.5962 5.63285 5.59318L5.63304 5.59375C5.63297 5.59355 5.63291 5.59336 5.63285 5.59318M5.77033 1.06413C5.55067 0.244778 4.74722 -0.114448 4.03465 0.0319184C3.99598 0.0371406 3.95687 0.0450703 3.91761 0.0560625C3.83745 0.0785052 3.76753 0.110665 3.7079 0.146439C3.68146 0.162299 3.65791 0.178358 3.63731 0.193605C3.60285 0.209636 3.56952 0.228329 3.53763 0.249589L1.14672 1.84353C1.14001 1.848 1.13338 1.85258 1.12682 1.85727C0.569386 2.25543 0.252624 2.90712 0.106259 3.60968C-0.0421554 4.32207 -0.0347211 5.1672 0.126185 6.08109C0.442676 7.97667 1.27773 10.2638 2.62747 12.3403C3.94974 14.3745 5.49549 16.1392 7.07821 17.3047C7.77878 17.8829 8.57554 18.2162 9.32643 18.4307C9.34587 18.4362 9.36553 18.441 9.38535 18.445C10.0705 18.582 10.7378 18.4435 11.2625 18.1811C11.3132 18.1557 11.3609 18.1247 11.4047 18.0885L13.6961 16.1957C13.7144 16.1806 13.732 16.1646 13.7487 16.1478L13.8484 16.0482L13.3588 15.5587L13.8484 16.0482C14.1183 15.7783 14.2922 15.4198 14.2922 15.0198C14.2922 14.6198 14.1183 14.2614 13.8484 13.9914C13.8397 13.9827 13.8308 13.9743 13.8217 13.966L10.6442 11.0864C10.2383 10.6953 9.46131 10.48 8.81757 10.909C8.77643 10.9364 8.73811 10.9678 8.70316 11.0027L8.46086 11.245C8.43888 11.2539 8.4075 11.2594 8.36676 11.253C8.31255 11.2444 8.27121 11.2189 8.24682 11.1915C8.09583 10.9665 7.92918 10.7375 7.76935 10.5179C7.71192 10.439 7.65537 10.3613 7.60074 10.2854C7.38079 9.97994 7.17506 9.68163 6.99574 9.36779C6.98719 9.35284 6.97814 9.33819 6.96859 9.32386C6.59127 8.75788 6.21893 8.10505 5.94254 7.46241C5.91297 7.38468 5.91599 7.32044 5.93533 7.2624C5.95734 7.19638 6.00819 7.11917 6.09722 7.0524L6.42197 6.80884C6.76707 6.64322 6.96516 6.33965 7.05606 6.06694C7.1565 5.76562 7.15719 5.42741 7.05811 5.12558L5.77033 1.06413Z" fill="currentColor"></path>
  </symbol>
  <symbol fill="none" xmlns="http://www.w3.org/2000/svg" viewBox="0 0 26 25" id="ic_search">
    <circle cx="12.0694" cy="11.085" r="10.585" stroke="currentColor"></circle>
    <line x1="19.8145" y1="19.0449" x2="25.357" y2="24.5874" stroke="currentColor"></line>
  </symbol>
  <symbol fill="none" xmlns="http://www.w3.org/2000/svg" viewBox="0 0 16 16" id="ic_website">
    <circle cx="8" cy="8" r="7.25" stroke="currentColor" stroke-width="1.5"></circle>
    <line x1="0.84375" y1="7.67188" x2="15.1595" y2="7.67188" stroke="currentColor" stroke-width="1.5"></line>
    <path d="M2.53125 2.52734C6.88192 4.81407 9.20615 4.73147 13.4786 2.52734" stroke="currentColor" stroke-width="1.5"></path>
    <path d="M2.53125 12.6328C6.88192 10.3461 9.20615 10.4287 13.4786 12.6328" stroke="currentColor" stroke-width="1.5"></path>
  </symbol>
</svg>