<svg width="0" height="0" class="hidden">
  <symbol fill="none" xmlns="http://www.w3.org/2000/svg" viewBox="0 0 7 13" id="ic_arr_hor">
    <path d="M6 1L1.61152 5.82733C1.26477 6.20875 1.26477 6.79125 1.61152 7.17267L6 12" stroke="currentColor" stroke-width="2" stroke-linecap="round"></path>
  </symbol>
  <symbol fill="none" xmlns="http://www.w3.org/2000/svg" viewBox="0 0 19 41" id="ic_arr_hor_big">
    <path d="M18.3203 1L1.7834 20.7022L18.3203 40.4044" stroke="currentColor" stroke-width="1.55034"></path>
  </symbol>
  <symbol fill="none" xmlns="http://www.w3.org/2000/svg" viewBox="0 0 45 84" id="ic_arr_hor_biggest">
    <path d="M43 2L3 42L43 82" stroke="currentColor" stroke-width="3"></path>
  </symbol>
  <symbol fill="none" xmlns="http://www.w3.org/2000/svg" viewBox="0 0 13 9" id="ic_arr_ver">
    <path fill-rule="evenodd" clip-rule="evenodd" d="M6.49991 8.12489L8.12489 6.49991L12.9998 1.625L11.3748 1.83655e-05L6.49991 4.87493L1.62498 0L0 1.62498L4.87494 6.49991L4.87492 6.49993L6.4999 8.12491L6.49991 8.12489Z" fill="currentColor"></path>
  </symbol>
  <symbol fill="none" xmlns="http://www.w3.org/2000/svg" viewBox="0 0 35 19" id="ic_arr_ver2">
    <path d="M1 1L17.5 17.5L34 1" stroke="currentColor" stroke-width="2"></path>
  </symbol>
  <symbol fill="none" xmlns="http://www.w3.org/2000/svg" viewBox="0 0 14 13" id="ic_arrow_hor">
    <path d="M1 6.78594L13 6.78594M13 6.78594L8.41485 1.98594M13 6.78594L8.41485 11.5859" stroke="currentColor" stroke-width="2" stroke-linecap="round" stroke-linejoin="round"></path>
  </symbol>
  <symbol fill="none" xmlns="http://www.w3.org/2000/svg" viewBox="0 0 12 15" id="ic_arrow_ver">
    <path d="M5.8 1.80469L5.8 13.7999M5.8 13.7999L10.6 9.21657M5.8 13.7999L1 9.21657" stroke="currentColor" stroke-width="2" stroke-linecap="round" stroke-linejoin="round"></path>
  </symbol>
  <symbol fill="none" xmlns="http://www.w3.org/2000/svg" viewBox="0 0 18 13" id="ic_check">
    <rect width="3" height="14.9155" rx="1" transform="matrix(-0.707107 -0.707107 -0.707107 0.707107 17.0234 2.12109)" fill="currentColor"></rect>
    <rect width="3" height="8.72786" rx="1" transform="matrix(-0.707107 0.707107 0.707107 0.707107 2.35156 4.28125)" fill="currentColor"></rect>
  </symbol>
  <symbol fill="none" xmlns="http://www.w3.org/2000/svg" viewBox="0 0 14 11" id="ic_check2">
    <path d="M2 4L5.63636 8L12 1" stroke="currentColor" stroke-width="3"></path>
  </symbol>
  <symbol fill="none" xmlns="http://www.w3.org/2000/svg" viewBox="0 0 23 20" id="ic_buy">
    <path d="M4.60381 1.01563H1.03906M4.88899 1.01562L7.45561 10.3352C7.66984 11.0702 8.11478 11.7166 8.72464 12.179C9.33451 12.6414 10.0769 12.8952 10.8421 12.9029H21.2274V1.01562H4.88899ZM12.9216 17.0634C12.9216 18.0482 12.1236 18.8465 11.1392 18.8465C10.1548 18.8465 9.35681 18.0482 9.35681 17.0634C9.35681 16.0786 10.1548 15.2803 11.1392 15.2803C12.1236 15.2803 12.9216 16.0786 12.9216 17.0634ZM21.2393 17.0634C21.2393 18.0482 20.4413 18.8465 19.4569 18.8465C18.4725 18.8465 17.6746 18.0482 17.6746 17.0634C17.6746 16.0786 18.4725 15.2803 19.4569 15.2803C20.4413 15.2803 21.2393 16.0786 21.2393 17.0634Z" stroke="currentColor" stroke-width="2" stroke-linecap="round" stroke-linejoin="round"></path>
  </symbol>
  <symbol fill="none" xmlns="http://www.w3.org/2000/svg" viewBox="0 0 29 32" id="ic_cart">
    <path d="M6.1875 7.70703H1.5625M6.5575 7.70703L9.8875 19.7937C10.1654 20.7468 10.7427 21.5852 11.534 22.1849C12.3252 22.7846 13.2885 23.1138 14.2813 23.1237H27.7554V7.70703H6.5575ZM16.9792 28.5195C16.9792 29.7967 15.9438 30.832 14.6667 30.832C13.3895 30.832 12.3542 29.7967 12.3542 28.5195C12.3542 27.2424 13.3895 26.207 14.6667 26.207C15.9438 26.207 16.9792 27.2424 16.9792 28.5195ZM27.7708 28.5195C27.7708 29.7967 26.7355 30.832 25.4583 30.832C24.1812 30.832 23.1458 29.7967 23.1458 28.5195C23.1458 27.2424 24.1812 26.207 25.4583 26.207C26.7355 26.207 27.7708 27.2424 27.7708 28.5195Z" stroke="currentColor" stroke-width="2" stroke-linecap="round" stroke-linejoin="round"></path>
    <path d="M18.1927 13.1042C21.8113 13.1042 24.7448 10.1707 24.7448 6.55208C24.7448 2.93347 21.8113 0 18.1927 0C14.5741 0 11.6406 2.93347 11.6406 6.55208C11.6406 10.1707 14.5741 13.1042 18.1927 13.1042Z" fill="#ED1C24"></path>
  </symbol>
  <symbol fill="none" xmlns="http://www.w3.org/2000/svg" viewBox="0 0 15 16" id="ic_close2">
    <path fill-rule="evenodd" clip-rule="evenodd" d="M0.0726328 14.0101L13.5077 0.575044L14.9219 1.98926L1.48685 15.4243L0.0726328 14.0101Z" fill="currentColor"></path>
    <path fill-rule="evenodd" clip-rule="evenodd" d="M14.9196 14.011L1.48453 0.576021L0.0703125 1.99023L13.5053 15.4253L14.9196 14.011Z" fill="currentColor"></path>
  </symbol>
  <symbol fill="none" xmlns="http://www.w3.org/2000/svg" viewBox="0 0 20 20" id="ic_close">
    <path d="M10.4581 9.99799L19.9056 0.550468C20.0315 0.424525 20.0315 0.220371 19.9056 0.0944273C19.7796 -0.0314758 19.5755 -0.0314758 19.4495 0.0944273L10.002 9.54195L0.554498 0.0944273C0.426377 -0.0292988 0.222223 -0.0257511 0.0984571 0.102369C-0.0222453 0.227345 -0.0222453 0.425492 0.0984571 0.550468L9.54598 9.99799L0.0984571 19.4455C-0.0296632 19.5693 -0.0332109 19.7734 0.0905554 19.9016C0.214322 20.0297 0.418476 20.0332 0.546596 19.9095C0.549297 19.9069 0.551918 19.9042 0.554498 19.9016L10.002 10.454L19.4495 19.9016C19.5777 20.0253 19.7818 20.0218 19.9056 19.8937C20.0263 19.7687 20.0263 19.5705 19.9056 19.4455L10.4581 9.99799Z" fill="currentColor"></path>
  </symbol>
  <symbol fill="none" xmlns="http://www.w3.org/2000/svg" viewBox="0 0 25 21" id="ic_email">
    <rect x="0.5" y="0.5" width="23.6038" height="19.3249" rx="2.5" stroke="currentColor"></rect>
    <path d="M1.0625 1.60127L11.3262 11.1319C11.7099 11.4881 12.3034 11.4881 12.6871 11.1319L23.5268 1.06641" stroke="currentColor"></path>
  </symbol>
  <symbol fill="none" xmlns="http://www.w3.org/2000/svg" viewBox="0 0 18 15" id="ic_email2">
    <rect x="0.75" y="0.75" width="15.8406" height="12.8249" rx="2.25" stroke="currentColor" stroke-width="1.5"></rect>
    <path d="M0.75 1.12697L7.78294 7.65756C8.16662 8.01383 8.76016 8.01383 9.14384 7.65756L16.5828 0.75" stroke="currentColor" stroke-width="1.5"></path>
  </symbol>
  <symbol fill="none" xmlns="http://www.w3.org/2000/svg" viewBox="0 0 18 18" id="ic_delete">
    <path d="M14.4948 7.10059C14.4948 7.10059 14.0876 12.1518 13.8513 14.2796C13.7388 15.2958 13.1111 15.8913 12.0828 15.9101C10.1261 15.9453 8.16706 15.9476 6.21106 15.9063C5.22181 15.8861 4.60456 15.2831 4.49431 14.2848C4.25656 12.1383 3.85156 7.10059 3.85156 7.10059" stroke="currentColor" stroke-width="2" stroke-linecap="round" stroke-linejoin="round"></path>
    <path d="M15.531 4.67871H2.8125" stroke="currentColor" stroke-width="2" stroke-linecap="round" stroke-linejoin="round"></path>
    <path d="M13.0829 4.67925C12.4941 4.67925 11.9871 4.263 11.8716 3.68625L11.6894 2.77425C11.5769 2.3535 11.1959 2.0625 10.7616 2.0625H7.58688C7.15263 2.0625 6.77163 2.3535 6.65913 2.77425L6.47688 3.68625C6.36138 4.263 5.85438 4.67925 5.26562 4.67925" stroke="currentColor" stroke-width="2" stroke-linecap="round" stroke-linejoin="round"></path>
  </symbol>
  <symbol fill="none" xmlns="http://www.w3.org/2000/svg" viewBox="0 0 21 25" id="ic_file">
    <path d="M15.9014 3.63872C16.8605 4.19247 17.5604 5.06756 17.8699 6.10285C18.1795 7.13816 18.0645 8.21284 17.5414 9.12463L12.6891 17.5349C12.388 18.0564 12.5924 18.7402 13.1448 19.0591L13.1624 19.0693C13.7148 19.3882 14.4105 19.2209 14.7103 18.7018L19.5576 10.2887C19.9709 9.57272 20.2238 8.79258 20.3064 7.97103C20.3868 7.17663 20.3097 6.37667 20.0769 5.59114C19.8428 4.80799 19.4631 4.07985 18.9499 3.42637C18.4196 2.75038 17.7647 2.18576 17.0089 1.74944L16.9938 1.74074C16.2331 1.3015 15.4166 1.01663 14.5636 0.893926C13.7385 0.774769 12.9167 0.812349 12.1189 0.999734C11.3222 1.19092 10.5884 1.52268 9.94057 1.98947C9.26905 2.47418 8.72125 3.08089 8.30539 3.79538L0.799631 16.8247C0.148353 17.947 -0.00398648 19.2719 0.379763 20.5555C0.754135 21.8148 1.58352 22.8658 2.71586 23.5196C3.85073 24.1748 5.17948 24.3666 6.45836 24.065C7.76322 23.7532 8.83951 22.9617 9.49104 21.8332L13.8777 14.2352C14.3677 13.3865 14.507 12.4554 14.2984 11.5701C13.8282 9.56641 11.7648 8.53634 9.96087 8.96464C8.99487 9.19399 8.2193 9.85885 7.73615 10.6957L5.96299 13.7843C5.66188 14.3058 5.86631 14.9897 6.41868 15.3086L6.43876 15.3202C6.99114 15.6391 7.68556 15.4742 7.98668 14.9527L8.00173 14.9266C8.14957 14.6705 9.7539 11.8859 9.7662 11.8646C10.6189 10.3877 12.7165 11.5671 11.8501 13.0678L7.46736 20.6648L7.40164 20.7786C7.10053 21.3002 6.55132 21.7006 5.89888 21.8739C5.2451 22.0496 4.53735 21.9824 3.95691 21.6947C3.91035 21.671 3.86631 21.6487 3.82112 21.6226C3.23862 21.2863 2.81193 20.7207 2.618 20.0303C2.43227 19.3604 2.4928 18.6526 2.79027 18.0909L2.85046 17.9867L10.3407 4.96101L10.3969 4.86381C10.935 3.99548 11.7982 3.38753 12.8335 3.15399C13.8673 2.92901 14.9585 3.0975 15.9014 3.63872Z" fill="currentColor"></path>
  </symbol>
  <symbol fill="none" xmlns="http://www.w3.org/2000/svg" viewBox="0 0 16 15" id="ic_grid">
    <rect x="0.09375" width="6.81818" height="6.81818" fill="currentColor"></rect>
    <rect x="0.09375" y="8.18359" width="6.81818" height="6.81818" fill="currentColor"></rect>
    <rect x="8.27344" width="6.81818" height="6.81818" fill="currentColor"></rect>
    <rect x="8.27344" y="8.18359" width="6.81818" height="6.81818" fill="currentColor"></rect>
  </symbol>
  <symbol fill="none" xmlns="http://www.w3.org/2000/svg" viewBox="0 0 15 15" id="ic_list">
    <rect width="4.09091" height="4.09091" fill="currentColor"></rect>
    <rect y="5.45312" width="4.09091" height="4.09091" fill="currentColor"></rect>
    <rect y="10.9102" width="4.09091" height="4.09091" fill="currentColor"></rect>
    <rect x="5.45312" width="9.54545" height="4.09091" fill="currentColor"></rect>
    <rect x="5.45312" y="5.45312" width="9.54545" height="4.09091" fill="currentColor"></rect>
    <rect x="5.45312" y="10.9102" width="9.54545" height="4.09091" fill="currentColor"></rect>
  </symbol>
  <symbol fill="none" xmlns="http://www.w3.org/2000/svg" viewBox="0 0 15 20" id="ic_location">
    <path d="M6.88325 18.1676C6.30457 17.2995 5.53299 16.2386 4.56853 14.8883C3.41116 13.2487 2.63959 12.0914 2.35025 11.5127C1.77157 10.7411 1.38578 10.066 1.1929 9.48727C1 8.90863 1 8.2335 1 7.55838C1 6.40101 1.28933 5.24365 1.86802 4.27918C2.4467 3.31472 3.21827 2.4467 4.27918 1.86802C5.24365 1.28934 6.40101 1 7.55841 1C8.71569 1 9.87306 1.28934 10.8375 1.86802C11.802 2.4467 12.67 3.21828 13.2487 4.27918C13.8274 5.24365 14.1168 6.40101 14.1168 7.55838C14.1168 8.32995 14.0203 8.90863 13.8274 9.48727C13.6345 10.066 13.2487 10.7411 12.7665 11.6091C12.3807 12.1878 11.6091 13.2487 10.5482 14.9848L8.23354 18.264C8.04065 18.4569 7.84775 18.5533 7.55841 18.5533C7.26903 18.5533 6.97969 18.4569 6.88325 18.1676ZM7.55841 10.2588C8.3299 10.2588 9.00504 9.9695 9.48727 9.48727C10.066 8.90863 10.2589 8.32995 10.2589 7.55838C10.2589 6.7868 9.96951 6.11167 9.48727 5.62944C8.90859 5.05076 8.3299 4.76142 7.55841 4.76142C6.7868 4.76142 6.11167 5.05076 5.62944 5.62944C5.05076 6.11167 4.76142 6.7868 4.76142 7.55838C4.76142 8.32995 5.05076 8.90863 5.62944 9.48727C6.11167 10.066 6.7868 10.2588 7.55841 10.2588Z" stroke="currentColor" stroke-width="1.5" stroke-linecap="round" stroke-linejoin="round"></path>
  </symbol>
  <symbol fill="none" xmlns="http://www.w3.org/2000/svg" viewBox="0 0 19 18" id="ic_menu">
    <path fill-rule="evenodd" clip-rule="evenodd" d="M0 0L19 0V2L0 2V0Z" fill="currentColor"></path>
    <path fill-rule="evenodd" clip-rule="evenodd" d="M0 8L19 8V10L0 10V8Z" fill="currentColor"></path>
    <path fill-rule="evenodd" clip-rule="evenodd" d="M0 16L19 16V18L0 18V16Z" fill="currentColor"></path>
  </symbol>
  <symbol fill="none" xmlns="http://www.w3.org/2000/svg" viewBox="0 0 12 2" id="ic_minus">
    <rect width="12" height="2" transform="matrix(-1 0 0 1 12 0)" fill="currentColor"></rect>
  </symbol>
  <symbol fill="none" xmlns="http://www.w3.org/2000/svg" viewBox="0 0 27 23" id="ic_pdf">
    <path d="M1 7C1 3.6863 3.68629 1 7 1H25C25.5523 1 26 1.44772 26 2V20.6452C26 21.1974 25.5523 21.6452 25 21.6452H2C1.44772 21.6452 1 21.1974 1 20.6452V7Z" fill="white" stroke="currentColor" stroke-width="2"></path>
    <path d="M1 4.74193C1 2.67532 2.67532 1 4.74194 1C4.93791 1 5.09677 1.15887 5.09677 1.35484V4.96774C5.09677 5.52003 4.64906 5.96774 4.09677 5.96774H1.54839C1.24552 5.96774 1 5.72222 1 5.41935V4.74193Z" fill="white" stroke="currentColor" stroke-width="2"></path>
    <path d="M6.91594 7.82356V6.72266H8.33736V7.82356H6.91594ZM6.91594 12.7707V11.6698H8.33736V12.7707H6.91594ZM9.81452 10.1647V9.32859H11.0827V10.1647H9.81452ZM11.0827 9.32859H9.81452C9.81452 8.84549 9.67981 8.47388 9.4104 8.21375C9.15027 7.95362 8.78794 7.82356 8.32343 7.82356V6.72266C8.87156 6.72266 9.35001 6.83414 9.75878 7.05711C10.1768 7.27079 10.502 7.57737 10.7343 7.97685C10.9665 8.36704 11.0827 8.81762 11.0827 9.32859ZM11.0827 10.1508C11.0827 10.671 10.9665 11.1263 10.7343 11.5165C10.502 11.9067 10.1768 12.2132 9.75878 12.4362C9.35001 12.6592 8.87156 12.7707 8.32343 12.7707V11.6698C8.78794 11.6698 9.15027 11.535 9.4104 11.2656C9.67981 10.9962 9.81452 10.6246 9.81452 10.1508H11.0827ZM6.09375 16.5472V6.72266H7.36188V16.5472H6.09375Z" fill="currentColor"></path>
    <path d="M16.0889 13.9412V9.32859H17.357V13.9412H16.0889ZM13.2321 16.5472V15.4463H14.6117V16.5472H13.2321ZM13.2321 7.82356V6.72266H14.6117V7.82356H13.2321ZM13.2321 7.82356V6.72266H14.6117V7.82356H13.2321ZM17.357 9.32859H16.0889C16.0889 8.84549 15.9588 8.47388 15.6987 8.21375C15.4385 7.95362 15.0762 7.82356 14.6117 7.82356V6.72266C15.1505 6.72266 15.6244 6.83414 16.0331 7.05711C16.4512 7.27079 16.7764 7.57737 17.0086 7.97685C17.2409 8.36704 17.357 8.81762 17.357 9.32859ZM17.357 13.9273C17.357 14.4476 17.2409 14.9028 17.0086 15.293C16.7764 15.6832 16.4512 15.9898 16.0331 16.2127C15.6244 16.4357 15.1505 16.5472 14.6117 16.5472V15.4463C15.0762 15.4463 15.4385 15.3162 15.6987 15.0561C15.9588 14.7867 16.0889 14.4104 16.0889 13.9273H17.357ZM12.3402 16.5472V6.72266H13.6084V16.5472H12.3402Z" fill="currentColor"></path>
    <path d="M19.8739 12.2132V11.0845H22.6888V12.2132H19.8739ZM18.9541 6.72266H20.2223V16.5472H18.9541V6.72266ZM19.8042 6.72266H23.3856V7.82356H19.8042V6.72266Z" fill="currentColor"></path>
  </symbol>
  <symbol fill="none" xmlns="http://www.w3.org/2000/svg" viewBox="0 0 15 19" id="ic_phone">
    <path fill-rule="evenodd" clip-rule="evenodd" d="M4.34476 1.53096C4.32082 1.54309 4.29551 1.5545 4.26883 1.5649L1.99116 3.08334C1.85232 3.18661 1.67559 3.43149 1.57473 3.91561C1.47429 4.39774 1.46664 5.04566 1.60399 5.82396L1.60523 5.83099L1.60519 5.83099C1.88688 7.5211 2.64556 9.61576 3.88514 11.5228C5.14792 13.4655 6.58398 15.0822 7.98356 16.1086C7.99606 16.1178 8.00826 16.1273 8.02017 16.1372C8.50237 16.5391 9.08134 16.7976 9.70651 16.9792C9.98333 17.0281 10.2725 16.9814 10.522 16.8721L12.7133 15.062L12.7532 15.022L9.63295 12.1943L9.46497 12.3622C9.43988 12.3873 9.41303 12.4106 9.38464 12.4319C8.6383 12.9917 7.57445 12.7958 7.03964 12.0827C7.03132 12.0716 7.0233 12.0603 7.01561 12.0487C6.87872 11.8434 6.73259 11.6426 6.57292 11.4232C6.51182 11.3392 6.44875 11.2526 6.38345 11.1619C6.15958 10.851 5.92206 10.5092 5.70637 10.1347C5.29337 9.51284 4.87662 8.78318 4.55937 8.04291L4.55237 8.02602C4.20528 7.15828 4.57769 6.31705 5.19721 5.85241L5.19722 5.8524L5.5957 5.55354C5.60226 5.54862 5.60891 5.5438 5.61563 5.5391L4.34476 1.53096ZM5.63178 5.58996C5.63184 5.5907 5.63191 5.59178 5.63191 5.59318C5.63191 5.59602 5.63164 5.59757 5.63163 5.59758C5.63162 5.5976 5.63187 5.5962 5.63285 5.59318L5.63304 5.59375C5.63297 5.59355 5.63291 5.59336 5.63285 5.59318M5.77033 1.06413C5.55067 0.244778 4.74722 -0.114448 4.03465 0.0319184C3.99598 0.0371406 3.95687 0.0450703 3.91761 0.0560625C3.83745 0.0785052 3.76753 0.110665 3.7079 0.146439C3.68146 0.162299 3.65791 0.178358 3.63731 0.193605C3.60285 0.209636 3.56952 0.228329 3.53763 0.249589L1.14672 1.84353C1.14001 1.848 1.13338 1.85258 1.12682 1.85727C0.569386 2.25543 0.252624 2.90712 0.106259 3.60968C-0.0421554 4.32207 -0.0347211 5.1672 0.126185 6.08109C0.442676 7.97667 1.27773 10.2638 2.62747 12.3403C3.94974 14.3745 5.49549 16.1392 7.07821 17.3047C7.77878 17.8829 8.57554 18.2162 9.32643 18.4307C9.34587 18.4362 9.36553 18.441 9.38535 18.445C10.0705 18.582 10.7378 18.4435 11.2625 18.1811C11.3132 18.1557 11.3609 18.1247 11.4047 18.0885L13.6961 16.1957C13.7144 16.1806 13.732 16.1646 13.7487 16.1478L13.8484 16.0482L13.3588 15.5587L13.8484 16.0482C14.1183 15.7783 14.2922 15.4198 14.2922 15.0198C14.2922 14.6198 14.1183 14.2614 13.8484 13.9914C13.8397 13.9827 13.8308 13.9743 13.8217 13.966L10.6442 11.0864C10.2383 10.6953 9.46131 10.48 8.81757 10.909C8.77643 10.9364 8.73811 10.9678 8.70316 11.0027L8.46086 11.245C8.43888 11.2539 8.4075 11.2594 8.36676 11.253C8.31255 11.2444 8.27121 11.2189 8.24682 11.1915C8.09583 10.9665 7.92918 10.7375 7.76935 10.5179C7.71192 10.439 7.65537 10.3613 7.60074 10.2854C7.38079 9.97994 7.17506 9.68163 6.99574 9.36779C6.98719 9.35284 6.97814 9.33819 6.96859 9.32386C6.59127 8.75788 6.21893 8.10505 5.94254 7.46241C5.91297 7.38468 5.91599 7.32044 5.93533 7.2624C5.95734 7.19638 6.00819 7.11917 6.09722 7.0524L6.42197 6.80884C6.76707 6.64322 6.96516 6.33965 7.05606 6.06694C7.1565 5.76562 7.15719 5.42741 7.05811 5.12558L5.77033 1.06413Z" fill="currentColor"></path>
  </symbol>
  <symbol fill="none" xmlns="http://www.w3.org/2000/svg" viewBox="0 0 12 12" id="ic_plus">
    <path fill-rule="evenodd" clip-rule="evenodd" d="M7 5V0H5V5H0V7H5V12H7V7H12V5H7Z" fill="currentColor"></path>
  </symbol>
  <symbol fill="none" xmlns="http://www.w3.org/2000/svg" viewBox="0 0 18 19" id="ic_plus_thin">
    <rect x="10" y="0.015625" width="18" height="1" transform="rotate(90 10 0.015625)" fill="currentColor"></rect>
    <rect x="18" y="10.0156" width="18" height="1" transform="rotate(-180 18 10.0156)" fill="currentColor"></rect>
  </symbol>
  <symbol fill="none" xmlns="http://www.w3.org/2000/svg" viewBox="0 0 19 20" id="ic_print">
    <rect x="1" y="5" width="17" height="9" rx="1" fill="white" stroke="currentColor" stroke-width="2"></rect>
    <rect x="4" y="1" width="11" height="4" rx="1" fill="white" stroke="currentColor" stroke-width="2"></rect>
    <rect x="4" y="12" width="11" height="7" rx="1" fill="white" stroke="currentColor" stroke-width="2"></rect>
  </symbol>
  <symbol fill="none" xmlns="http://www.w3.org/2000/svg" viewBox="0 0 41 35" id="ic_require">
    <path fill-rule="evenodd" clip-rule="evenodd" d="M36.107 27.0202C38.6295 24.231 40.125 20.7604 40.125 16.9987C40.125 7.79395 31.1707 0.332031 20.125 0.332031C9.0793 0.332031 0.125 7.79395 0.125 16.9987C0.125 26.2034 9.0793 33.6654 20.125 33.6654C23.2711 33.6654 26.2475 33.06 28.8957 31.9815L38.7917 34.9974L36.107 27.0202Z" fill="currentColor"></path>
  </symbol>
  <symbol fill="none" xmlns="http://www.w3.org/2000/svg" viewBox="0 0 19 18" id="ic_reset">
    <path d="M0.999973 7H4.98436M0.999973 7V3M0.999973 7L4.32752 3.34315C7.45172 0.218951 12.517 0.218951 15.6412 3.34315C18.7654 6.46734 18.7654 11.5327 15.6412 14.6569C12.517 17.781 7.45172 17.781 4.32752 14.6569C3.54366 13.873 2.95647 12.9669 2.56595 12" stroke="currentColor" stroke-width="2" stroke-linecap="round" stroke-linejoin="round"></path>
  </symbol>
  <symbol fill="none" xmlns="http://www.w3.org/2000/svg" viewBox="0 0 26 25" id="ic_search">
    <circle cx="12.0694" cy="11.085" r="10.585" stroke="currentColor"></circle>
    <line x1="19.8145" y1="19.0449" x2="25.357" y2="24.5874" stroke="currentColor"></line>
  </symbol>
  <symbol fill="none" xmlns="http://www.w3.org/2000/svg" viewBox="0 0 16 16" id="ic_website">
    <circle cx="8" cy="8" r="7.25" stroke="currentColor" stroke-width="1.5"></circle>
    <line x1="0.84375" y1="7.67188" x2="15.1595" y2="7.67188" stroke="currentColor" stroke-width="1.5"></line>
    <path d="M2.53125 2.52734C6.88192 4.81407 9.20615 4.73147 13.4786 2.52734" stroke="currentColor" stroke-width="1.5"></path>
    <path d="M2.53125 12.6328C6.88192 10.3461 9.20615 10.4287 13.4786 12.6328" stroke="currentColor" stroke-width="1.5"></path>
  </symbol>
  <symbol fill="none" xmlns="http://www.w3.org/2000/svg" viewBox="0 0 24 24" id="ic_zoom">
    <path d="M10.5695 0C4.74165 0 0 4.74165 0 10.5695C0 16.3977 4.74165 21.139 10.5695 21.139C16.3977 21.139 21.139 16.3977 21.139 10.5695C21.139 4.74165 16.3977 0 10.5695 0ZM10.5695 19.1878C5.81747 19.1878 1.9513 15.3216 1.9513 10.5696C1.9513 5.81752 5.81747 1.9513 10.5695 1.9513C15.3216 1.9513 19.1877 5.81747 19.1877 10.5695C19.1877 15.3216 15.3216 19.1878 10.5695 19.1878Z" fill="currentColor"></path>
    <path d="M23.7039 22.3322L18.1106 16.739C17.7295 16.3578 17.1123 16.3578 16.7312 16.739C16.35 17.1198 16.35 17.7376 16.7312 18.1184L22.3244 23.7117C22.515 23.9022 22.7644 23.9975 23.0142 23.9975C23.2636 23.9975 23.5133 23.9022 23.7039 23.7117C24.085 23.3309 24.085 22.713 23.7039 22.3322Z" fill="currentColor"></path>
  </symbol>
</svg>